<svg width="96" height="96" viewBox="0 0 96 96" fill="none" xmlns="http://www.w3.org/2000/svg">
<rect width="96" height="96" fill="#D9D9D9"/>
<path d="M85.8472 52.6583C85.8472 67.8461 69.2817 80.1583 48.8472 80.1583C28.4127 80.1583 11.8472 67.8461 11.8472 52.6583C11.8472 48.1571 13.3022 43.9086 15.8816 40.1583C19.4804 34.9258 25.2682 30.6631 32.3472 28.0374C37.3147 26.1948 42.9181 25.1583 48.8472 25.1583C53.8016 25.1583 58.5286 25.882 62.8472 27.195C71.0618 29.6926 77.7988 34.3222 81.8128 40.1583C84.3922 43.9086 85.8472 48.1571 85.8472 52.6583Z" fill="#FDCA93"/>
<path d="M82.8472 15.6583C77.3472 11.6583 62.8472 27.195 62.8472 27.195C71.0618 29.6926 77.7988 34.3222 81.8128 40.1583C81.8128 40.1583 88.3472 19.6583 82.8472 15.6583Z" fill="#FDCA93"/>
<path d="M32.3472 28.0374C32.3472 28.0374 18.3472 13.1583 12.8472 15.6583C7.3472 18.1583 15.8816 40.1583 15.8816 40.1583C19.4804 34.9258 25.2682 30.6631 32.3472 28.0374Z" fill="#FDCA93"/>
<path d="M57.8472 68.1583C55.0472 72.5583 49.8472 70.6583 48.8472 68.1583C46.0472 72.5583 41.6805 70.9916 39.8472 69.6583" stroke="#F381A4" stroke-width="3" stroke-linecap="round"/>
<circle cx="38.3472" cy="46.6583" r="12.5" fill="#EFECEC"/>
<circle cx="60.2847" cy="46.7208" r="12.5625" fill="#EFECEC"/>
<path d="M49.6249 68.1961C49.2247 68.6913 48.4697 68.6913 48.0695 68.1961L44.1014 63.2869C43.5728 62.6329 44.0383 61.6583 44.8791 61.6583H52.8153C53.6561 61.6583 54.1216 62.6329 53.593 63.2869L49.6249 68.1961Z" fill="#F381A4"/>
<circle cx="38.8472" cy="46.1583" r="4" fill="#161515"/>
<circle cx="59.8472" cy="46.1583" r="4" fill="#161515"/>
</svg>
