<svg width="100" height="100" viewBox="0 0 100 100" fill="none" xmlns="http://www.w3.org/2000/svg">
<circle cx="50" cy="50" r="50" fill="#D9D9D9"/>
<path d="M87.8472 54.6583C87.8472 69.8461 71.2817 82.1583 50.8472 82.1583C30.4127 82.1583 13.8472 69.8461 13.8472 54.6583C13.8472 50.1571 15.3022 45.9086 17.8816 42.1583C21.4804 36.9258 27.2682 32.6631 34.3472 30.0374C39.3147 28.1948 44.9181 27.1583 50.8472 27.1583C55.8016 27.1583 60.5286 27.882 64.8472 29.195C73.0618 31.6926 79.7988 36.3222 83.8128 42.1583C86.3922 45.9086 87.8472 50.1571 87.8472 54.6583Z" fill="#6F4C27"/>
<path d="M84.8472 17.6583C79.3472 13.6583 64.8472 29.195 64.8472 29.195C73.0618 31.6926 79.7988 36.3222 83.8128 42.1583C83.8128 42.1583 90.3472 21.6583 84.8472 17.6583Z" fill="#6F4C27"/>
<path d="M34.3472 30.0374C34.3472 30.0374 20.3472 15.1583 14.8472 17.6583C9.3472 20.1583 17.8816 42.1583 17.8816 42.1583C21.4804 36.9258 27.2682 32.6631 34.3472 30.0374Z" fill="#6F4C27"/>
<path d="M59.8472 70.1583C57.0472 74.5583 51.8472 72.6583 50.8472 70.1583C48.0472 74.5583 43.6805 72.9916 41.8472 71.6583" stroke="#F381A4" stroke-width="3" stroke-linecap="round"/>
<circle cx="40.3472" cy="48.6583" r="12.5" fill="#EFECEC"/>
<circle cx="62.2847" cy="48.7208" r="12.5625" fill="#EFECEC"/>
<path d="M51.6249 70.1961C51.2247 70.6913 50.4697 70.6913 50.0695 70.1961L46.1014 65.2869C45.5728 64.6329 46.0383 63.6583 46.8791 63.6583H54.8153C55.6561 63.6583 56.1216 64.6329 55.593 65.2869L51.6249 70.1961Z" fill="#F381A4"/>
<circle cx="44" cy="44" r="4" fill="#161515"/>
<circle cx="65" cy="45" r="4" fill="#161515"/>
</svg>
