<svg width="102" height="99" viewBox="0 0 102 99" fill="none" xmlns="http://www.w3.org/2000/svg">
<path d="M16.7673 12.3245C25.0774 7.55988 35.6237 9.60091 41.5561 17.1219L51.9564 30.3071C53.6452 32.4481 55.0534 34.7962 56.1468 37.2944L68.1748 64.7757C72.0588 73.6497 68.6343 84.0247 60.2307 88.8429V88.8429C51.1403 94.0549 39.5458 90.9108 34.3337 81.8204L9.61361 38.7054C4.30416 29.4451 7.507 17.6339 16.7673 12.3245V12.3245Z" fill="#D9D9D9"/>
<path d="M85.0419 12.214C76.7937 7.48493 66.3392 9.37558 60.2697 16.694L44.2772 35.9773C41.7802 38.9881 39.8564 42.4312 38.6011 46.1358L32.2147 64.9839C29.185 73.9252 32.9067 83.7604 41.0967 88.4562V88.4562C50.5596 93.8818 62.6291 90.6089 68.0547 81.146L92.2778 38.898C97.6482 29.5313 94.4086 17.5845 85.0419 12.214V12.214Z" fill="#D9D9D9"/>
<path d="M88.8472 53.6583C88.8472 68.8461 72.2817 81.1583 51.8472 81.1583C31.4127 81.1583 14.8472 68.8461 14.8472 53.6583C14.8472 49.1571 16.3022 44.9086 18.8816 41.1583C22.4804 35.9258 28.2682 31.6631 35.3472 29.0374C40.3147 27.1948 45.9181 26.1583 51.8472 26.1583C56.8016 26.1583 61.5286 26.882 65.8472 28.195C74.0618 30.6926 80.7988 35.3222 84.8128 41.1583C87.3922 44.9086 88.8472 49.1571 88.8472 53.6583Z" fill="#EEE9E3"/>
<path d="M85.8472 16.6583C80.3472 12.6583 65.8472 28.195 65.8472 28.195C74.0618 30.6926 80.7988 35.3222 84.8128 41.1583C84.8128 41.1583 91.3472 20.6583 85.8472 16.6583Z" fill="#EEE9E3"/>
<path d="M35.3472 29.0374C35.3472 29.0374 21.3472 14.1583 15.8472 16.6583C10.3472 19.1583 18.8816 41.1583 18.8816 41.1583C22.4804 35.9258 28.2682 31.6631 35.3472 29.0374Z" fill="#EEE9E3"/>
<path d="M67.5 69.1583C64.7 73.5583 52.8472 71.6583 51.8472 69.1583C49.0472 73.5583 38.8333 70.4916 37 69.1583" stroke="#F381A4" stroke-width="3" stroke-linecap="round"/>
<circle cx="41.3472" cy="47.6583" r="12.5" fill="#EFECEC"/>
<circle cx="63.2847" cy="47.7208" r="12.5625" fill="#EFECEC"/>
<path d="M52.6249 69.1961C52.2247 69.6913 51.4697 69.6913 51.0695 69.1961L47.1014 64.2869C46.5728 63.6329 47.0383 62.6583 47.8791 62.6583H55.8153C56.6561 62.6583 57.1216 63.6329 56.593 64.2869L52.6249 69.1961Z" fill="#F381A4"/>
<circle cx="41" cy="52" r="4" fill="#161515"/>
<circle cx="63" cy="52" r="4" fill="#161515"/>
</svg>
