<svg width="112" height="112" viewBox="0 0 112 112" fill="none" xmlns="http://www.w3.org/2000/svg">
<path d="M56 0L68.2903 14.1431L86.2759 8.8898L88.9688 27.4324L106.939 32.7368L99.18 49.7917L111.43 63.9696L95.6818 74.1221L98.322 92.6722L79.5849 92.6988L71.777 109.732L56 99.624L40.223 109.732L32.4151 92.6988L13.678 92.6722L16.3182 74.1221L0.57 63.9696L12.82 49.7917L5.06061 32.7368L23.0312 27.4324L25.7241 8.8898L43.7097 14.1431L56 0Z" fill="#D9D9D9"/>
<path d="M93.8472 60.6583C93.8472 75.8461 77.2817 88.1583 56.8472 88.1583C36.4127 88.1583 19.8472 75.8461 19.8472 60.6583C19.8472 56.1571 21.3022 51.9086 23.8816 48.1583C27.4804 42.9258 33.2682 38.6631 40.3472 36.0374C45.3147 34.1948 50.9181 33.1583 56.8472 33.1583C61.8016 33.1583 66.5286 33.882 70.8472 35.195C79.0618 37.6926 85.7988 42.3222 89.8128 48.1583C92.3922 51.9086 93.8472 56.1571 93.8472 60.6583Z" fill="#948E87"/>
<path d="M90.8472 23.6583C85.3472 19.6583 70.8472 35.195 70.8472 35.195C79.0618 37.6926 85.7988 42.3222 89.8128 48.1583C89.8128 48.1583 96.3472 27.6583 90.8472 23.6583Z" fill="#948E87"/>
<path d="M40.3472 36.0374C40.3472 36.0374 26.3472 21.1583 20.8472 23.6583C15.3472 26.1583 23.8816 48.1583 23.8816 48.1583C27.4804 42.9258 33.2682 38.6631 40.3472 36.0374Z" fill="#948E87"/>
<path d="M72.5 76.1583C69.7 80.5583 57.8472 78.6583 56.8472 76.1583C54.0472 80.5583 43.8333 77.4916 42 76.1583" stroke="#F381A4" stroke-width="3" stroke-linecap="round"/>
<circle cx="46.3472" cy="54.6583" r="12.5" fill="#EFECEC"/>
<circle cx="68.2847" cy="54.7208" r="12.5625" fill="#EFECEC"/>
<path d="M57.6249 76.1961C57.2247 76.6913 56.4697 76.6913 56.0695 76.1961L52.1014 71.2869C51.5728 70.6329 52.0383 69.6583 52.8791 69.6583H60.8153C61.6561 69.6583 62.1216 70.6329 61.593 71.2869L57.6249 76.1961Z" fill="#F381A4"/>
<circle cx="46" cy="59" r="4" fill="#161515"/>
<circle cx="68" cy="59" r="4" fill="#161515"/>
</svg>
