<svg width="117" height="114" viewBox="0 0 117 114" fill="none" xmlns="http://www.w3.org/2000/svg">
<rect x="0.552612" y="18.0466" width="65" height="93" rx="6" transform="rotate(-16.0857 0.552612 18.0466)" fill="#D9D9D9"/>
<path d="M109.884 82.7524C107.147 99.7025 86.4412 110.458 63.6355 106.776C40.8299 103.094 24.5609 86.368 27.2977 69.4178C28.1088 64.3944 30.4982 59.9151 34.0527 56.1944C39.012 51.0033 46.2394 47.289 54.613 45.6341C60.4889 44.4729 66.9293 44.3258 73.5464 45.3942C79.0757 46.287 84.2207 47.9465 88.8038 50.1901C97.5215 54.4577 104.206 60.8385 107.634 68.075C109.837 72.7253 110.695 77.729 109.884 82.7524Z" fill="#FDCA93"/>
<path d="M113.203 40.9186C107.786 35.4634 88.8038 50.1901 88.8038 50.1901C97.5215 54.4577 104.206 60.8385 107.634 68.075C107.634 68.075 118.621 46.3738 113.203 40.9186Z" fill="#FDCA93"/>
<path d="M54.613 45.6341C54.613 45.6341 41.6697 26.5058 35.081 28.3048C28.4924 30.1038 34.0527 56.1944 34.0527 56.1944C39.012 51.0033 46.2394 47.289 54.613 45.6341Z" fill="#FDCA93"/>
<path d="M75.8423 95.0054C71.9245 99.4114 66.4635 96.3539 65.798 93.3836C61.8802 97.7896 57.2892 95.2543 55.4834 93.4359" stroke="#F381A4" stroke-width="3.39146" stroke-linecap="round"/>
<circle cx="57.9538" cy="67.4968" r="14.1311" transform="rotate(9.17193 57.9538 67.4968)" fill="#EFECEC"/>
<circle cx="82.4255" cy="71.5197" r="14.2017" transform="rotate(9.17193 82.4255 71.5197)" fill="#EFECEC"/>
<path d="M66.659 93.566C66.1231 94.0465 65.2806 93.9105 64.9231 93.2857L61.3793 87.0918C60.9072 86.2668 61.6023 85.2629 62.5407 85.4144L71.3977 86.8445C72.3361 86.996 72.6799 88.1676 71.9722 88.8022L66.659 93.566Z" fill="#F381A4"/>
<circle cx="58.6019" cy="67.0289" r="4.52195" transform="rotate(9.17193 58.6019 67.0289)" fill="#161515"/>
<circle cx="82.0386" cy="70.8131" r="4.52195" transform="rotate(9.17193 82.0386 70.8131)" fill="#161515"/>
</svg>
